<svg width="18" height="18" viewBox="0 0 28 27" fill="none" xmlns="http://www.w3.org/2000/svg">
<path d="M12.1333 19.6334L21.5333 10.2334L19.6667 8.36675L12.1333 15.9001L8.33333 12.1001L6.46667 13.9667L12.1333 19.6334ZM14 26.8334C12.1556 26.8334 10.4222 26.4832 8.8 25.7827C7.17778 25.0832 5.76667 24.1334 4.56667 22.9334C3.36667 21.7334 2.41689 20.3223 1.71733 18.7001C1.01689 17.0779 0.666668 15.3445 0.666668 13.5001C0.666668 11.6556 1.01689 9.9223 1.71733 8.30008C2.41689 6.67786 3.36667 5.26675 4.56667 4.06675C5.76667 2.86675 7.17778 1.91653 8.8 1.21608C10.4222 0.516526 12.1556 0.166748 14 0.166748C15.8444 0.166748 17.5778 0.516526 19.2 1.21608C20.8222 1.91653 22.2333 2.86675 23.4333 4.06675C24.6333 5.26675 25.5831 6.67786 26.2827 8.30008C26.9831 9.9223 27.3333 11.6556 27.3333 13.5001C27.3333 15.3445 26.9831 17.0779 26.2827 18.7001C25.5831 20.3223 24.6333 21.7334 23.4333 22.9334C22.2333 24.1334 20.8222 25.0832 19.2 25.7827C17.5778 26.4832 15.8444 26.8334 14 26.8334Z" fill="#47BA68"/>
</svg>
